<?xml version="1.0" standalone="no"?>
<!DOCTYPE svg PUBLIC "-//W3C//DTD SVG 20010904//EN"
 "http://www.w3.org/TR/2001/REC-SVG-20010904/DTD/svg10.dtd">
<svg version="1.0" xmlns="http://www.w3.org/2000/svg"
 width="460.000000pt" height="251.000000pt" viewBox="0 0 460.000000 251.000000"
 preserveAspectRatio="xMidYMid meet">

<g transform="translate(0.000000,251.000000) scale(0.100000,-0.100000)"
fill="#000000" stroke="none">
<path d="M340 2326 c-62 -16 -113 -49 -151 -97 -61 -77 -59 -49 -59 -1004 0
-966 -3 -923 66 -1003 19 -23 60 -53 92 -69 l57 -28 543 -3 542 -3 0 295 0
296 -22 5 c-158 36 -344 75 -358 75 -18 0 -19 -9 -17 -122 l2 -123 -252 -3
-253 -2 0 695 0 695 250 0 250 0 0 -113 c0 -63 2 -116 5 -119 5 -4 326 62 378
78 16 5 17 27 17 285 l0 279 -522 -1 c-380 0 -535 -4 -568 -13z"/>
<path d="M1569 2053 c0 -159 -2 -379 -5 -490 -4 -149 -2 -203 6 -203 7 0 97
84 201 187 l189 186 0 99 0 98 193 0 192 0 299 -287 c164 -159 303 -289 307
-291 5 -2 9 117 9 265 l0 268 -232 227 -233 227 -462 1 -463 0 -1 -287z"/>
<path d="M3342 2135 l207 -205 260 0 261 0 0 -93 c0 -52 2 -96 5 -99 3 -3 40
3 83 13 42 11 122 28 177 40 55 11 108 22 118 25 15 5 17 21 17 148 0 215 -30
285 -148 343 l-57 28 -565 3 -565 2 207 -205z"/>
<path d="M3090 1232 c0 -573 3 -1042 8 -1042 4 0 96 89 205 198 l197 197 -1
615 c0 338 -3 631 -7 650 -6 29 -44 71 -204 229 l-198 194 0 -1041z"/>
<path d="M2558 993 l-3 -458 -288 0 c-159 0 -293 2 -298 6 -5 3 -10 203 -11
455 l-3 449 -195 -192 -195 -192 0 -468 0 -468 505 -3 c306 -1 526 2 559 8
129 24 246 111 297 223 l29 62 3 331 3 331 -180 173 c-99 95 -189 179 -200
187 l-21 14 -2 -458z"/>
<path d="M4070 635 l0 -95 -245 0 -246 0 -209 -202 c-116 -112 -210 -207 -210
-211 0 -4 246 -6 548 -4 444 2 555 6 587 17 22 8 63 37 92 65 70 69 83 115 83
306 l0 147 -187 36 c-104 20 -194 36 -200 36 -10 0 -13 -26 -13 -95z"/>
</g>
</svg>
