<?xml version="1.0" standalone="no"?>
<!DOCTYPE svg PUBLIC "-//W3C//DTD SVG 20010904//EN"
 "http://www.w3.org/TR/2001/REC-SVG-20010904/DTD/svg10.dtd">
<svg version="1.0" xmlns="http://www.w3.org/2000/svg"
 width="319.000000pt" height="351.000000pt" viewBox="0 0 319.000000 351.000000"
 preserveAspectRatio="xMidYMid meet">

<g transform="translate(0.000000,351.000000) scale(0.100000,-0.100000)"
fill="#000000" stroke="none">
<path d="M1684 3416 c-2 -6 -3 -193 -2 -416 l3 -404 190 -172 190 -172 3 354
2 354 23 -5 c12 -2 103 -23 202 -45 99 -22 234 -55 300 -73 l120 -32 3 -163
c1 -90 7 -162 12 -162 7 0 283 58 358 75 l22 5 -1 260 c-1 182 -4 262 -12 268
-40 32 -730 208 -1082 276 -132 26 -259 51 -283 55 -31 6 -45 5 -48 -3z"/>
<path d="M1220 3370 c-368 -72 -771 -170 -1030 -252 l-75 -24 -3 -808 c-2
-898 -5 -859 66 -1022 126 -291 380 -582 693 -794 56 -38 106 -67 110 -64 5 3
9 108 9 233 l0 229 -72 58 c-176 141 -315 316 -380 478 l-33 81 -3 661 -3 662
23 6 c87 24 316 80 433 106 77 16 150 32 163 35 l22 5 0 -351 c0 -209 4 -349
9 -347 11 4 227 195 319 282 l62 59 0 409 0 408 -32 -1 c-18 0 -143 -22 -278
-49z"/>
<path d="M2655 2327 l-420 -72 -3 -194 c-1 -107 1 -198 5 -202 5 -4 114 13
243 37 129 24 236 44 238 44 1 0 2 -90 2 -201 0 -229 -8 -276 -70 -398 -72
-143 -190 -282 -337 -398 l-83 -65 0 -239 0 -240 41 23 c135 75 396 304 523
458 126 151 234 338 287 495 24 70 24 72 24 545 0 414 -2 475 -15 476 -8 1
-204 -30 -435 -69z"/>
<path d="M1230 1920 l0 -208 168 -31 c92 -18 193 -37 225 -43 l57 -11 0 -793
c0 -692 2 -794 15 -794 8 0 95 53 194 118 l181 117 2 839 c3 831 3 839 -17
847 -11 5 -193 42 -405 84 -212 41 -393 77 -402 79 -17 4 -18 -11 -18 -204z"/>
<path d="M1140 918 l1 -643 179 -115 c98 -63 186 -116 194 -118 14 -3 16 56
15 590 l0 593 -185 165 c-102 91 -190 167 -195 168 -5 2 -9 -254 -9 -640z"/>
</g>
</svg>
